<svg id="Layer_1" data-name="Layer 1" xmlns="http://www.w3.org/2000/svg" viewBox="0 0 512 512"><title>airmail</title><g id="airmail"><path id="label" d="M256,0C114.61,0,0,114.63,0,256S114.61,512,256,512,512,397.38,512,256,397.37,0,256,0Z" fill="#84d4f0"/><g id="airmail-2" data-name="airmail"><polygon points="112.64 149.71 112.64 150.23 112.64 362.29 399.36 362.29 399.36 150.23 399.36 149.71 112.64 149.71" fill="#fff"/><path d="M122.53,367.4a5.12,5.12,0,0,1-3.08-9.21l19.78-14.83a5.12,5.12,0,1,1,6.14,8.19L125.6,366.38a5.09,5.09,0,0,1-3.07,1Z" fill="#2c4c76"/><path d="M157.13,367.4a5.12,5.12,0,0,1-3.08-9.21l19.78-14.83a5.12,5.12,0,1,1,6.14,8.19L160.2,366.38a5.09,5.09,0,0,1-3.07,1Z" fill="#fc6e51"/><path d="M191.73,367.4a5.12,5.12,0,0,1-3.07-9.21l19.77-14.83a5.12,5.12,0,1,1,6.14,8.19l-19.77,14.83a5.1,5.1,0,0,1-3.07,1Z" fill="#2c4c76"/><path d="M226.35,367.4a5.12,5.12,0,0,1-3.08-9.21L243,343.36a5.12,5.12,0,1,1,6.14,8.19l-19.78,14.83a5.07,5.07,0,0,1-3.06,1Z" fill="#fc6e51"/><path d="M261,367.4a5.12,5.12,0,0,1-3.08-9.21l19.78-14.83a5.12,5.12,0,1,1,6.14,8.19L264,366.38a5.09,5.09,0,0,1-3.07,1Z" fill="#2c4c76"/><path d="M295.55,367.4a5.12,5.12,0,0,1-3.08-9.21l19.78-14.83a5.12,5.12,0,1,1,6.14,8.19l-19.78,14.83a5.09,5.09,0,0,1-3.07,1Z" fill="#fc6e51"/><path d="M330.16,367.4a5.12,5.12,0,0,1-3.07-9.21l19.77-14.83a5.12,5.12,0,1,1,6.14,8.19l-19.77,14.83a5.1,5.1,0,0,1-3.07,1Z" fill="#2c4c76"/><path d="M364.76,367.4a5.12,5.12,0,0,1-3.07-9.21l19.77-14.83a5.12,5.12,0,1,1,6.14,8.19l-19.77,14.83a5.1,5.1,0,0,1-3.07,1Z" fill="#fc6e51"/><path d="M127.48,169.67a5.12,5.12,0,0,1-3.08-9.21l19.77-14.83a5.12,5.12,0,1,1,6.14,8.19l-19.77,14.83a5.09,5.09,0,0,1-3.07,1Z" fill="#fc6e51"/><path d="M162.08,169.67a5.12,5.12,0,0,1-3.08-9.21l19.77-14.83a5.12,5.12,0,1,1,6.14,8.19l-19.77,14.83a5.09,5.09,0,0,1-3.07,1Z" fill="#2c4c76"/><path d="M196.69,169.67a5.12,5.12,0,0,1-3.08-9.21l19.78-14.83a5.12,5.12,0,1,1,6.14,8.19l-19.78,14.83a5.07,5.07,0,0,1-3.06,1Z" fill="#fc6e51"/><path d="M231.29,169.67a5.12,5.12,0,0,1-3.08-9.21L248,145.62a5.12,5.12,0,1,1,6.14,8.19l-19.78,14.83a5.07,5.07,0,0,1-3.06,1Z" fill="#2c4c76"/><path d="M265.89,169.67a5.12,5.12,0,0,1-3.08-9.21l19.78-14.83a5.12,5.12,0,1,1,6.14,8.19L269,168.64a5.09,5.09,0,0,1-3.07,1Z" fill="#fc6e51"/><path d="M300.49,169.67a5.12,5.12,0,0,1-3.07-9.21l19.77-14.83a5.12,5.12,0,1,1,6.14,8.19l-19.77,14.83a5.11,5.11,0,0,1-3.07,1Z" fill="#2c4c76"/><path d="M335.1,169.67a5.12,5.12,0,0,1-3.08-9.21l19.78-14.83a5.12,5.12,0,0,1,6.14,8.19l-19.78,14.83a5.09,5.09,0,0,1-3.07,1Z" fill="#fc6e51"/><path d="M369.7,169.67a5.12,5.12,0,0,1-3.08-9.21l19.78-14.83a5.12,5.12,0,0,1,6.14,8.19l-19.78,14.83a5.09,5.09,0,0,1-3.07,1Z" fill="#2c4c76"/><path d="M404.48,367.4h-297V144.6h297V367.4ZM117.76,357.17H394.24V154.83H117.76V357.17Z" fill="#2c4c76"/><polygon points="300.49 300.67 249.82 300.67 249.82 290.43 300.49 290.43 300.49 300.67 300.49 300.67" fill="#2c4c76"/><polygon points="241.17 300.67 211.51 300.67 211.51 290.43 241.17 290.43 241.17 300.67 241.17 300.67" fill="#2c4c76"/><polygon points="300.49 283.37 211.51 283.37 211.51 273.13 300.49 273.13 300.49 283.37 300.49 283.37" fill="#2c4c76"/><polygon points="300.49 263.59 211.51 263.59 211.51 253.35 300.49 253.35 300.49 263.59 300.49 263.59" fill="#2c4c76"/><polygon points="380.52 236.21 330.74 236.21 330.74 186.43 380.52 186.43 380.52 236.21 380.52 236.21" fill="#2c4c76"/><polygon points="340.98 225.98 370.29 225.98 370.29 196.67 340.98 196.67 340.98 225.98 340.98 225.98" fill="#fc6e51"/></g></g></svg>